<svg xmlns="http://www.w3.org/2000/svg" viewBox="0 0 179.7 205.5">
  <defs>
    <style>
      .cls-1{fill:#f7c510;}
      .cls-3{fill:#319f24;}
    </style>
  </defs>
  <g id="Layer_2" data-name="Layer 2">
    <g id="Layer_1-2" data-name="Layer 1">
      <!-- Logo graphic elements -->
      <path class="cls-1" d="M89.85,179.7A89.85,89.85,0,0,1,89.85,0a5.21,5.21,0,1,1,0,10.42A79.36,79.36,0,1,0,165.57,65.8a5.22,5.22,0,1,1,9.94-3.16A89.93,89.93,0,0,1,89.85,179.7Z"/>
      <path class="cls-3" d="M149.4,84.64A64.84,64.84,0,0,0,84.88,144a54.39,54.39,0,0,1-49.36-54.1,5.22,5.22,0,0,0-10.43,0,64.86,64.86,0,0,0,59.55,64.56v45.73a5.21,5.21,0,0,0,10.42,0V154.39a64.85,64.85,0,0,0,59.55-64.54V84.64ZM95.33,143.92a54.44,54.44,0,0,1,48.58-48.58A54.45,54.45,0,0,1,95.33,143.92Z"/>
    </g>
  </g>
</svg> 