<svg xmlns="http://www.w3.org/2000/svg" viewBox="0 0 435.26 205.5">
  <defs>
    <style>
      .cls-1{fill:#f7c510;}
      .cls-2{fill:#409fcf;}
      .cls-3{fill:#319f24;}
    </style>
  </defs>
  <g id="Layer_2" data-name="Layer 2">
    <g id="Layer_1-2" data-name="Layer 1" transform="translate(-207,0)">
      <!-- Text elements -->
      <path class="cls-1" d="M226.79,67.77a22.32,22.32,0,0,1-7.93-1.38,18.06,18.06,0,0,1-6.35-4A18.47,18.47,0,0,1,208.3,56a23.18,23.18,0,0,1-1.53-8.69V17.07h10.4V47.26q0,5.48,2.71,8.3A9.35,9.35,0,0,0,227,58.39a9.73,9.73,0,0,0,7.25-2.83q2.81-2.82,2.8-8.3V17.07h10.16V47.26a22.62,22.62,0,0,1-1.56,8.63,18.5,18.5,0,0,1-4.33,6.47,18.8,18.8,0,0,1-6.47,4A22.76,22.76,0,0,1,226.79,67.77ZM221.26,12.2,228.78,1h10.4L230.34,12.2Z"/>
      <path class="cls-1" d="M262.46,67.23a17.42,17.42,0,0,1-5.72-.84,18.74,18.74,0,0,1-3.48-1.51V54.06q1.92,1.26,4.09,2.4a9.31,9.31,0,0,0,4.45,1.15,5.06,5.06,0,0,0,3.85-1.6,5.75,5.75,0,0,0,1.5-4.12V17.07h10.16V51.89a16.91,16.91,0,0,1-1.14,6.38,13.89,13.89,0,0,1-7.88,7.88A15.58,15.58,0,0,1,262.46,67.23Z"/>
      <path class="cls-1" d="M301.89,66.63V17.07h31.69v9.32H312.29V36.74h17.5V46h-17.5V57.31h22.25v9.32ZM312.35,12.2,319.87,1h10.4L321.43,12.2Z"/>
      <path class="cls-1" d="M342.68,66.63V17.07h10.4V57.25h18.47v9.38Z"/>
      <path class="cls-1" d="M378.65,66.63V17.07h31.69v9.32H389.05V36.74h17.5V46h-17.5V57.31H411.3v9.32Z"/>
      <path class="cls-1" d="M429.87,66.63V26.45H416.64V17.07h36.87v9.38H440.28V66.63Z"/>
      <path class="cls-2" d="M207.31,132.12V82.57h16.84a22,22,0,0,1,7.3,1.11,15.91,15.91,0,0,1,5.27,2.95,12.51,12.51,0,0,1,3.19,4.18A11.22,11.22,0,0,1,241,95.56a10.71,10.71,0,0,1-.69,4,11.87,11.87,0,0,1-1.69,2.94,12.35,12.35,0,0,1-2.07,2.08c-.72.56-1.37,1-1.93,1.44a20.29,20.29,0,0,1,2.8,1.57,13.18,13.18,0,0,1,2.74,2.43,12.74,12.74,0,0,1,2.07,3.43A11.79,11.79,0,0,1,243,118a13.18,13.18,0,0,1-1.11,5.32,12.67,12.67,0,0,1-3.34,4.51,16.62,16.62,0,0,1-5.53,3.13,23.29,23.29,0,0,1-7.76,1.17Zm10.22-29h6.2a7.06,7.06,0,0,0,5-1.68,5.55,5.55,0,0,0,0-8.21,7.05,7.05,0,0,0-5.05-1.71h-6.14Zm0,20h7.7a7.7,7.7,0,0,0,5.44-1.71,5.55,5.55,0,0,0,1.84-4.24,5.27,5.27,0,0,0-1.93-4.15,8,8,0,0,0-5.47-1.69h-7.58Z"/>
      <path class="cls-2" d="M284.17,132.12l-3.06-7.33H260.42l-3.07,7.33H245.92L269,82h3.67l23.09,50.15Zm-20-16.24h13.23l-6.62-15.75Z"/>
      <path class="cls-2" d="M302.08,132.12V82.57h16a23.76,23.76,0,0,1,8.09,1.29,17.76,17.76,0,0,1,6,3.49,14.76,14.76,0,0,1,3.73,5.17,16.13,16.13,0,0,1,0,12.69,14.88,14.88,0,0,1-3.76,5.2,17.87,17.87,0,0,1-6,3.52,23.5,23.5,0,0,1-8.06,1.29h-5.59v16.9ZM312.49,106h5.59a11.65,11.65,0,0,0,3.85-.57,7.82,7.82,0,0,0,2.68-1.53,6,6,0,0,0,1.56-2.29,7.61,7.61,0,0,0,.51-2.77,6.91,6.91,0,0,0-2-5c-1.37-1.38-3.55-2.07-6.56-2.07h-5.59Z"/>
      <path class="cls-2" d="M355.07,132.12V92H341.84V82.57H378.7V92H365.47v40.17Z"/>
      <path class="cls-2" d="M385.8,132.12V82.57h10.4v49.55Z"/>
      <path class="cls-2" d="M422,133.09a31.57,31.57,0,0,1-8.87-1.18,55.57,55.57,0,0,1-7.42-2.73V118.53a54.67,54.67,0,0,0,7.75,3.67,23.33,23.33,0,0,0,8.3,1.5,7.65,7.65,0,0,0,5.09-1.47,4.94,4.94,0,0,0,1.71-3.94,4.43,4.43,0,0,0-.66-2.46A6.32,6.32,0,0,0,426,114a14,14,0,0,0-3-1.44c-1.19-.42-2.54-.88-4.06-1.36a37.93,37.93,0,0,1-4.63-1.86,17.52,17.52,0,0,1-4.39-3,14.15,14.15,0,0,1-3.25-4.39,14,14,0,0,1-1.26-6.19,13.58,13.58,0,0,1,1.29-6,13.14,13.14,0,0,1,3.55-4.48,15.7,15.7,0,0,1,5.38-2.79,23,23,0,0,1,6.8-1,34.88,34.88,0,0,1,8.33.91A58.52,58.52,0,0,1,437,84.31V94.9a38.18,38.18,0,0,0-7.31-3,25.78,25.78,0,0,0-7.12-1.08,8.36,8.36,0,0,0-4.91,1.23,4.07,4.07,0,0,0-1.71,3.52,4.32,4.32,0,0,0,.63,2.37,5.84,5.84,0,0,0,1.87,1.78,16.17,16.17,0,0,0,3,1.44c1.18.44,2.54.9,4.06,1.38a42.41,42.41,0,0,1,4.69,1.81,16.68,16.68,0,0,1,4.39,2.86,14.15,14.15,0,0,1,3.28,4.38,14.42,14.42,0,0,1,1.29,6.41,13.61,13.61,0,0,1-1.44,6.34,14.41,14.41,0,0,1-3.85,4.73,17.51,17.51,0,0,1-5.5,2.94A20.2,20.2,0,0,1,422,133.09Z"/>
      <path class="cls-2" d="M457.32,132.12V92H444.09V82.57H481V92H467.72v40.17Z"/>
      <path class="cls-2" d="M516.86,132.12l-3.07-7.33H493.1L490,132.12H478.61L501.7,82h3.67l23.1,50.15Zm-20-16.24h13.23l-6.61-15.75Z"/>
      <path class="cls-3" d="M234.31,205.5a28.43,28.43,0,0,1-10.79-2A26.24,26.24,0,0,1,215,198a26.06,26.06,0,0,1-5.66-28.6,25,25,0,0,1,5.69-8.24,26.56,26.56,0,0,1,8.72-5.5,29.84,29.84,0,0,1,11.09-2,34.51,34.51,0,0,1,10.08,1.27,41.15,41.15,0,0,1,6.88,2.7v10.65a42,42,0,0,0-7.88-3.73,27.15,27.15,0,0,0-9.08-1.44,19.49,19.49,0,0,0-7,1.2,14.44,14.44,0,0,0-8.63,8.57,19.64,19.64,0,0,0,0,13.41,15,15,0,0,0,3.33,5.23,15.27,15.27,0,0,0,5.18,3.43,17.45,17.45,0,0,0,6.67,1.23,21.28,21.28,0,0,0,4.78-.48,22.32,22.32,0,0,0,3.88-1.26v-8.06h-9.74v-8.66h19.61v22.43c-.61.4-1.46.91-2.56,1.51a31.08,31.08,0,0,1-4,1.77,37.67,37.67,0,0,1-5.35,1.5A31.64,31.64,0,0,1,234.31,205.5Z"/>
      <path class="cls-3" d="M275,204.29V182.64l-17.86-27.9h12l11.18,18.34,11.07-18.34h11.85l-18,27.9v21.65Z"/>
      <path class="cls-3" d="M328.27,205.44a22.38,22.38,0,0,1-7.94-1.39,17.88,17.88,0,0,1-6.34-4,18.38,18.38,0,0,1-4.21-6.43,23.05,23.05,0,0,1-1.54-8.69V154.74h10.41v30.19c0,3.65.9,6.41,2.7,8.3a9.4,9.4,0,0,0,7.1,2.82,9.77,9.77,0,0,0,7.25-2.82c1.86-1.89,2.79-4.65,2.79-8.3V154.74h10.17v30.19a22.46,22.46,0,0,1-1.57,8.63,18.41,18.41,0,0,1-4.33,6.46,18.61,18.61,0,0,1-6.46,4A22.8,22.8,0,0,1,328.27,205.44Zm-8.06-55.88a5.9,5.9,0,0,1-5.26-3.21,4.88,4.88,0,0,1-.51-2.26,4.71,4.71,0,0,1,.51-2.19,5.51,5.51,0,0,1,1.32-1.69,6.15,6.15,0,0,1,1.84-1.08,5.83,5.83,0,0,1,2.1-.39,5.93,5.93,0,0,1,2.11.39,6.23,6.23,0,0,1,1.83,1.08,5.14,5.14,0,0,1,1.29,1.69,5,5,0,0,1,.48,2.19,5.14,5.14,0,0,1-.48,2.26,5.44,5.44,0,0,1-1.29,1.71,5.95,5.95,0,0,1-3.94,1.5Zm16.9,0a5.9,5.9,0,0,1-5.26-3.21,4.88,4.88,0,0,1-.51-2.26,4.71,4.71,0,0,1,.51-2.19,5.51,5.51,0,0,1,1.32-1.69,6.15,6.15,0,0,1,1.84-1.08,5.83,5.83,0,0,1,2.1-.39,5.93,5.93,0,0,1,2.11.39,6.23,6.23,0,0,1,1.83,1.08,5.14,5.14,0,0,1,1.29,1.69,5,5,0,0,1,.48,2.19,5.14,5.14,0,0,1-.48,2.26,5.44,5.44,0,0,1-1.29,1.71,5.95,5.95,0,0,1-3.94,1.5Z"/>
      <path class="cls-3" d="M358.22,204.29V154.74h10.4v40.17h18.47v9.38Z"/>
      <path class="cls-3" d="M394.19,204.29V154.74h31.69v9.32H404.59V174.4h17.5v9.26h-17.5V195h22.25v9.32Z"/>
      <path class="cls-3" d="M475.58,204.29H462.65l-17.26-23.63v23.63H435V154.74h10.41v22.85l16.05-22.85h12.09l-17.74,23.75Z"/>
      <path class="cls-3" d="M481.77,204.29V154.74h31.69v9.32H492.17V174.4h17.5v9.26h-17.5V195h22.25v9.32Z"/>
      <path class="cls-3" d="M519.89,204.29l23.94-40.23H522.18v-9.32h38.49L536.8,194.91h23.33v9.38Z"/>
      <path class="cls-3" d="M567.4,204.29V154.74h31.69v9.32H577.8V174.4h17.51v9.26H577.8V195h22.26v9.32Z"/>
      <path class="cls-3" d="M618.62,204.29V164.12H605.39v-9.38h36.87v9.38H629v40.17Z"/>
    </g>
  </g>
</svg> 